# xmcd CD database file
#
# Track frame offsets:
#	150
#	23240
#	43302
#	67953
#	87449
#	103944
#	124118
#	146877
#	173710
#	202801
#	227329
#	252648
#	283408
#	309968
#	337878
#
# Disc length: 4720 seconds
#
# Revision: 0
# Processed by: cddbd v1.5.1PL2 Copyright (c) Steve Scherf et al.
# Submitted via: CDex 1.51
#
DISCID=da126e0f
DTITLE=Didier Marouani - Le Gagnant
DYEAR=1979
DGENRE=New Age
TTITLE0=Crazy Machines
TTITLE1=Lover's Song (part one)
TTITLE2=Anywhere
TTITLE3=Three Years Ago
TTITLE4=The Winner
TTITLE5=Lover's Song (part two)
TTITLE6=I Wanna Try You
TTITLE7=Save Your Love For Me (from Just Blue vynil version) (bonus)
TTITLE8=My Love Is Music (from Just Blue vynil version) (bonus)
TTITLE9=On The Air (from Deeper Zone vynil version) (bonus)
TTITLE10=Love Staring (from Deeper Zone vynil version) (bonus)
TTITLE11=Inner Voices (from Deeper Zone vynil version) (bonus)
TTITLE12=Mixed Up (from Deeper Zone vynil version) (bonus)
TTITLE13=Tender Force (12'' version) (bonus)
TTITLE14=Robbots (12'' version) (bonus)
EXTD=YEAR: 1979
EXTT0=
EXTT1=
EXTT2=
EXTT3=
EXTT4=
EXTT5=
EXTT6=
EXTT7=
EXTT8=
EXTT9=
EXTT10=
EXTT11=
EXTT12=
EXTT13=
EXTT14=
PLAYORDER=
